<svg width="200" height="200" viewBox="0 0 200 200" xmlns="http://www.w3.org/2000/svg">
  <!-- Background -->
  <rect width="200" height="200" fill="#ffffff"/>
  
  <!-- QR Code Pattern (Simplified) -->
  <g fill="#000000">
    <!-- Top-left corner marker -->
    <rect x="10" y="10" width="30" height="30" fill="none" stroke="#000" stroke-width="4"/>
    <rect x="18" y="18" width="14" height="14"/>
    
    <!-- Top-right corner marker -->
    <rect x="160" y="10" width="30" height="30" fill="none" stroke="#000" stroke-width="4"/>
    <rect x="168" y="18" width="14" height="14"/>
    
    <!-- Bottom-left corner marker -->
    <rect x="10" y="160" width="30" height="30" fill="none" stroke="#000" stroke-width="4"/>
    <rect x="18" y="168" width="14" height="14"/>
    
    <!-- Simplified QR pattern dots -->
    <rect x="50" y="20" width="8" height="8"/>
    <rect x="62" y="20" width="8" height="8"/>
    <rect x="86" y="20" width="8" height="8"/>
    <rect x="110" y="20" width="8" height="8"/>
    <rect x="134" y="20" width="8" height="8"/>
    
    <rect x="50" y="44" width="8" height="8"/>
    <rect x="74" y="44" width="8" height="8"/>
    <rect x="98" y="44" width="8" height="8"/>
    <rect x="122" y="44" width="8" height="8"/>
    <rect x="146" y="44" width="8" height="8"/>
    
    <!-- More pattern dots -->
    <rect x="20" y="68" width="8" height="8"/>
    <rect x="44" y="68" width="8" height="8"/>
    <rect x="68" y="68" width="8" height="8"/>
    <rect x="92" y="68" width="8" height="8"/>
    <rect x="116" y="68" width="8" height="8"/>
    <rect x="140" y="68" width="8" height="8"/>
    <rect x="164" y="68" width="8" height="8"/>
    
    <rect x="32" y="92" width="8" height="8"/>
    <rect x="56" y="92" width="8" height="8"/>
    <rect x="80" y="92" width="8" height="8"/>
    <rect x="104" y="92" width="8" height="8"/>
    <rect x="128" y="92" width="8" height="8"/>
    <rect x="152" y="92" width="8" height="8"/>
    <rect x="176" y="92" width="8" height="8"/>
    
    <rect x="20" y="116" width="8" height="8"/>
    <rect x="44" y="116" width="8" height="8"/>
    <rect x="92" y="116" width="8" height="8"/>
    <rect x="116" y="116" width="8" height="8"/>
    <rect x="164" y="116" width="8" height="8"/>
    
    <rect x="56" y="140" width="8" height="8"/>
    <rect x="80" y="140" width="8" height="8"/>
    <rect x="104" y="140" width="8" height="8"/>
    <rect x="128" y="140" width="8" height="8"/>
    <rect x="152" y="140" width="8" height="8"/>
  </g>
  
  <!-- WeChat Icon in Center -->
  <g transform="translate(100, 100)">
    <circle cx="0" cy="0" r="20" fill="#07C160"/>
    <path d="M -8 -5 Q -10 -8 -7 -10 Q -4 -11 -2 -9 L 0 -7 L 2 -9 Q 4 -11 7 -10 Q 10 -8 8 -5 L 0 3 Z" fill="#ffffff"/>
  </g>
  
  <!-- Placeholder Text -->
  <text x="100" y="190" text-anchor="middle" font-family="Arial, sans-serif" font-size="12" fill="#666666">
    请替换为实际二维码
  </text>
</svg>
