<svg width="48" height="48" viewBox="0 0 48 48" fill="none" xmlns="http://www.w3.org/2000/svg">
  <circle cx="24" cy="24" r="24" fill="#06B6D4"/>
  <rect x="12" y="14" width="18" height="20" rx="2" fill="white"/>
  <path d="M16 20h10v1H16v-1zm0 3h10v1H16v-1zm0 3h8v1h-8v-1zm0 3h6v1h-6v-1z" fill="#06B6D4"/>
  <path d="M28 18l6-6 4 4-6 6-4-4z" fill="#FCD34D"/>
  <path d="M30 20l2 2-2 2-2-2 2-2z" fill="white"/>
  <circle cx="36" cy="12" r="3" fill="white" stroke="#06B6D4" stroke-width="2"/>
  <path d="M34 12l1 1 3-3" stroke="#06B6D4" stroke-width="2" fill="none"/>
</svg> 