<svg width="48" height="48" viewBox="0 0 48 48" fill="none" xmlns="http://www.w3.org/2000/svg">
  <circle cx="24" cy="24" r="24" fill="#DC2626"/>
  <rect x="12" y="18" width="16" height="12" rx="1" fill="white"/>
  <path d="M12 18l8 6 8-6v12H12V18z" fill="white"/>
  <path d="M12 18l8 6 8-6" stroke="#DC2626" stroke-width="2" fill="none"/>
  <path d="M16 22h8v1h-8v-1zm0 2h6v1h-6v-1z" fill="#DC2626"/>
  <circle cx="32" cy="16" r="6" fill="#FCD34D"/>
  <path d="M29 16h6m-3-3v6" stroke="white" stroke-width="2"/>
  <path d="M32 22l2 4 4 1-3 3 1 4-4-2-4 2 1-4-3-3 4-1z" fill="white"/>
</svg> 