<svg width="48" height="48" viewBox="0 0 48 48" fill="none" xmlns="http://www.w3.org/2000/svg">
  <circle cx="24" cy="24" r="24" fill="#4F46E5"/>
  <rect x="12" y="14" width="18" height="20" rx="2" fill="white"/>
  <path d="M16 20h10v1.5H16v-1.5zm0 3h10v1.5H16v-1.5zm0 3h8v1.5h-8v-1.5zm0 3h6v1.5h-6v-1.5z" fill="#4F46E5"/>
  <circle cx="32" cy="16" r="8" fill="#F59E0B"/>
  <path d="M32 12v8m-4-4h8" stroke="white" stroke-width="2"/>
  <circle cx="32" cy="16" r="3" fill="none" stroke="white" stroke-width="2"/>
  <path d="M29 19l3-3 3 3" stroke="white" stroke-width="2" fill="none"/>
  <circle cx="32" cy="32" r="4" fill="#10B981"/>
  <path d="M30 32l1.5 1.5L34 30" stroke="white" stroke-width="2" fill="none"/>
</svg> 